<svg width="148" height="117" viewBox="0 0 148 117" fill="none" xmlns="http://www.w3.org/2000/svg">
    <path opacity="0.2" d="M128.381 19.7861C142.147 37.1621 143.664 68.0657 130.598 88.5904C117.649 108.998 90.1168 118.911 66.3182 116.695C42.5196 114.596 22.3374 100.369 12.538 81.8266C2.73859 63.2844 3.32189 40.4274 13.3546 25.1505C23.3874 9.87363 42.9862 2.2935 65.8516 0.427627C88.6002 -1.43825 114.615 2.41012 128.381 19.7861Z" fill="#86CCE9"/>
    <circle opacity="0.5" cx="143.55" cy="86.8498" r="4.05" fill="#52B6DF"/>
    <circle opacity="0.5" cx="8.6" cy="103.5" r="8.1" fill="#52B6DF"/>
    <circle opacity="0.5" cx="10.85" cy="11.2501" r="3.15" fill="#52B6DF"/>
    <path d="M114.892 29.3156C125.332 42.4144 126.482 65.711 116.573 81.1834C106.752 96.5679 85.8724 104.04 67.8238 102.37C49.7752 100.788 34.4693 90.0625 27.0375 76.0845C19.6057 62.1066 20.0481 44.8759 27.6568 33.3595C35.2655 21.8431 50.1291 16.1289 67.4699 14.7223C84.7223 13.3157 104.452 16.2168 114.892 29.3156Z" fill="#52B6DF"/>
    <path fill-rule="evenodd" clip-rule="evenodd" d="M91.8999 58.4999C91.8999 68.9381 83.4381 77.3999 72.9999 77.3999C62.5617 77.3999 54.0999 68.9381 54.0999 58.4999C54.0999 48.0617 62.5617 39.5999 72.9999 39.5999C83.4381 39.5999 91.8999 48.0617 91.8999 58.4999ZM94.5999 58.4999C94.5999 70.4293 84.9293 80.0999 72.9999 80.0999C61.0706 80.0999 51.3999 70.4293 51.3999 58.4999C51.3999 46.5706 61.0706 36.8999 72.9999 36.8999C84.9293 36.8999 94.5999 46.5706 94.5999 58.4999ZM83.3876 53.1711C83.924 52.6532 83.939 51.7985 83.4211 51.2622C82.9032 50.7258 82.0486 50.7108 81.5122 51.2287L69.4165 62.9073L64.9545 58.4453C64.4273 57.9181 63.5725 57.9181 63.0453 58.4453C62.5181 58.9725 62.5181 59.8273 63.0453 60.3545L67.82 65.1291C68.6878 65.9969 70.0909 66.0093 70.9738 65.1568L83.3876 53.1711Z" fill="white"/>
</svg>
